<svg width="36" height="36" viewBox="0 0 36 36" fill="none" xmlns="http://www.w3.org/2000/svg">
<path d="M18 0.125C14.4647 0.125 11.0087 1.17335 8.06919 3.13748C5.12966 5.10161 2.83858 7.8933 1.48566 11.1595C0.132745 14.4258 -0.22124 18.0198 0.468471 21.4872C1.15818 24.9547 2.86061 28.1397 5.36047 30.6395C7.86034 33.1394 11.0454 34.8418 14.5128 35.5315C17.9802 36.2212 21.5742 35.8673 24.8405 34.5143C28.1067 33.1614 30.8984 30.8703 32.8625 27.9308C34.8267 24.9913 35.875 21.5353 35.875 18C35.8691 13.2611 33.9839 8.71793 30.633 5.367C27.2821 2.01606 22.7389 0.130913 18 0.125ZM24.875 19.375H19.375V24.875C19.375 25.2397 19.2301 25.5894 18.9723 25.8473C18.7144 26.1051 18.3647 26.25 18 26.25C17.6353 26.25 17.2856 26.1051 17.0277 25.8473C16.7699 25.5894 16.625 25.2397 16.625 24.875V19.375H11.125C10.7603 19.375 10.4106 19.2301 10.1527 18.9723C9.89487 18.7144 9.75001 18.3647 9.75001 18C9.75001 17.6353 9.89487 17.2856 10.1527 17.0277C10.4106 16.7699 10.7603 16.625 11.125 16.625H16.625V11.125C16.625 10.7603 16.7699 10.4106 17.0277 10.1527C17.2856 9.89487 17.6353 9.75 18 9.75C18.3647 9.75 18.7144 9.89487 18.9723 10.1527C19.2301 10.4106 19.375 10.7603 19.375 11.125V16.625H24.875C25.2397 16.625 25.5894 16.7699 25.8473 17.0277C26.1051 17.2856 26.25 17.6353 26.25 18C26.25 18.3647 26.1051 18.7144 25.8473 18.9723C25.5894 19.2301 25.2397 19.375 24.875 19.375Z" fill="#2E3192"/>
</svg>
