<svg width="32" height="33" viewBox="0 0 32 33" fill="none" xmlns="http://www.w3.org/2000/svg">
<path d="M25 8.97559V21.9756C25 22.2408 24.8947 22.4952 24.7071 22.6827C24.5196 22.8702 24.2652 22.9756 24 22.9756C23.7348 22.9756 23.4804 22.8702 23.2929 22.6827C23.1054 22.4952 23 22.2408 23 21.9756V11.3893L8.70751 25.6831C8.51987 25.8707 8.26537 25.9761 8.00001 25.9761C7.73464 25.9761 7.48015 25.8707 7.29251 25.6831C7.10487 25.4954 6.99945 25.2409 6.99945 24.9756C6.99945 24.7102 7.10487 24.4557 7.29251 24.2681L21.5863 9.97559H11C10.7348 9.97559 10.4804 9.87023 10.2929 9.68269C10.1054 9.49516 10 9.2408 10 8.97559C10 8.71037 10.1054 8.45602 10.2929 8.26848C10.4804 8.08094 10.7348 7.97559 11 7.97559H24C24.2652 7.97559 24.5196 8.08094 24.7071 8.26848C24.8947 8.45602 25 8.71037 25 8.97559Z" fill="#152CC7"/>
</svg>
