<svg width="33" height="33" viewBox="0 0 33 33" fill="none" xmlns="http://www.w3.org/2000/svg">
<path d="M29.4416 6.27295H20.4416C19.6654 6.27295 18.8998 6.45367 18.2055 6.80081C17.5112 7.14795 16.9073 7.65197 16.4416 8.27295C15.9759 7.65197 15.3719 7.14795 14.6777 6.80081C13.9834 6.45367 13.2178 6.27295 12.4416 6.27295H3.44159C3.17637 6.27295 2.92202 6.37831 2.73448 6.56584C2.54695 6.75338 2.44159 7.00773 2.44159 7.27295V25.2729C2.44159 25.5382 2.54695 25.7925 2.73448 25.9801C2.92202 26.1676 3.17637 26.2729 3.44159 26.2729H12.4416C13.2372 26.2729 14.0003 26.589 14.5629 27.1516C15.1255 27.7142 15.4416 28.4773 15.4416 29.2729C15.4416 29.5382 15.5469 29.7925 15.7345 29.9801C15.922 30.1676 16.1764 30.2729 16.4416 30.2729C16.7068 30.2729 16.9612 30.1676 17.1487 29.9801C17.3362 29.7925 17.4416 29.5382 17.4416 29.2729C17.4416 28.4773 17.7577 27.7142 18.3203 27.1516C18.8829 26.589 19.6459 26.2729 20.4416 26.2729H29.4416C29.7068 26.2729 29.9612 26.1676 30.1487 25.9801C30.3362 25.7925 30.4416 25.5382 30.4416 25.2729V7.27295C30.4416 7.00773 30.3362 6.75338 30.1487 6.56584C29.9612 6.37831 29.7068 6.27295 29.4416 6.27295ZM12.4416 24.2729H4.44159V8.27295H12.4416C13.2372 8.27295 14.0003 8.58902 14.5629 9.15163C15.1255 9.71424 15.4416 10.4773 15.4416 11.2729V25.2729C14.5769 24.6223 13.5237 24.2712 12.4416 24.2729ZM28.4416 24.2729H20.4416C19.3595 24.2712 18.3063 24.6223 17.4416 25.2729V11.2729C17.4416 10.4773 17.7577 9.71424 18.3203 9.15163C18.8829 8.58902 19.6459 8.27295 20.4416 8.27295H28.4416V24.2729Z" fill="#1E1E1E"/>
</svg>
